
<svg xmlns="http://www.w3.org/2000/svg" width="512" height="512" viewBox="0 0 100 100">
  <rect width="100" height="100" fill="#0b0f1a"/>
  <g transform="translate(15, 8) scale(0.7)">
    <path d="M25,90 L75,90 L75,80 L70,75 L68,58 L72,48 L78,45 L78,38 L70,38 L65,33 L60,28 L55,20 L58,14 L52,10 L45,18 L40,18 L35,23 L30,33 L25,48 L22,58 L22,75 L25,80 Z"
          fill="#f0d9b5"
          stroke="#f0d9b5"
          stroke-width="1.5"
          stroke-linejoin="round"/>
    <!-- Eye -->
    <circle cx="48" cy="30" r="3.5" fill="#0b0f1a"/>
    <!-- Nostril -->
    <ellipse cx="35" cy="42" rx="2.5" ry="2" fill="#0b0f1a"/>
    <!-- Mane detail lines -->
    <path d="M55,20 Q62,28 58,40"
          fill="none"
          stroke="#0b0f1a"
          stroke-width="2"
          stroke-linecap="round"/>
    <path d="M50,22 Q56,30 52,42"
          fill="none"
          stroke="#0b0f1a"
          stroke-width="1.5"
          stroke-linecap="round"/>
  </g>
</svg>